# xmcd
#
# Track frame offsets:
#  150
#  12019
#  25823
#  37689
#  54095
#  67606
#  79252
#  91541
#  105387
#  116038
#  128149
#  139431
#  152298
#  166678
#  179126
#
# Disc length: 2554 seconds
#
# Revision: 3
# Processed by: cddbd v1.5.1PL2 Copyright (c) Steve Scherf et al.
# Submitted via: Collectorz.com_Music_Collector 6.9
#
DISCID=a409f80f
DTITLE=Mark van den Berg - Mark van den Berg Sings The Hits Of Johnny Cash
DYEAR=2003
DGENRE=Country
TTITLE0=Ring Of Fire
TTITLE1=Man In Black
TTITLE2=Ballad Of Boot Hill
TTITLE3=Long Black Veil
TTITLE4=I Walk The Line
TTITLE5=A Thing Called Love
TTITLE6=All Around Cowboy
TTITLE7=Chicken In Black
TTITLE8=San Quentin
TTITLE9=Peace In The Valley
TTITLE10=In The Jailhouse Now
TTITLE11=My Old Kentucky Home
TTITLE12=Dirty Old Egg Sucking Dog
TTITLE13=Cocaine Blues
TTITLE14=The Beast In Me
EXTD=
EXTT0=
EXTT1=
EXTT2=
EXTT3=
EXTT4=
EXTT5=
EXTT6=
EXTT7=
EXTT8=
EXTT9=
EXTT10=
EXTT11=
EXTT12=
EXTT13=
EXTT14=
PLAYORDER=
